<svg width="31" height="31" viewBox="0 0 31 31" fill="none" xmlns="http://www.w3.org/2000/svg">
<path d="M23.978 20.3619V7.76812C23.978 7.57543 23.9014 7.39062 23.7652 7.25437C23.6289 7.11811 23.4441 7.04156 23.2514 7.04156H10.6577C10.465 7.04156 10.2802 7.11811 10.1439 7.25437C10.0076 7.39062 9.93109 7.57543 9.93109 7.76812C9.93109 7.96082 10.0076 8.14562 10.1439 8.28188C10.2802 8.41814 10.465 8.49469 10.6577 8.49469H21.498L7.23797 22.7547C7.10963 22.8924 7.03976 23.0746 7.04308 23.2628C7.0464 23.451 7.12266 23.6306 7.25577 23.7638C7.38889 23.8969 7.56849 23.9731 7.75671 23.9764C7.94494 23.9798 8.12711 23.9099 8.26484 23.7816L22.5248 9.52156V20.3619C22.5248 20.5546 22.6014 20.7394 22.7376 20.8756C22.8739 21.0119 23.0587 21.0884 23.2514 21.0884C23.4441 21.0884 23.6289 21.0119 23.7652 20.8756C23.9014 20.7394 23.978 20.5546 23.978 20.3619Z" fill="#2F2F2F"/>
</svg>
