<svg width="228" height="37" viewBox="0 0 228 37" fill="none" xmlns="http://www.w3.org/2000/svg">
<path d="M18.76 35.9995H13.76L3.76 23.3195V35.9995H0V9.59953L3.76 8.47953V20.5195L14.12 9.11953H16.28L5.84 19.6795L18.76 35.9995Z" fill="#2F2F2F"/>
<path d="M25.3225 8.47953V35.9995H21.5625V9.59953L25.3225 8.47953Z" fill="#2F2F2F"/>
<path d="M48.9322 9.11953L40.9722 25.4395V35.9995H37.4922L37.2522 25.4395L29.2922 9.11953H33.6122L40.7322 23.9195L47.5322 9.11953H48.9322Z" fill="#2F2F2F"/>
<path d="M63.9169 35.9995L60.5169 26.1195H51.2369L48.2769 35.9995H46.7969L55.3569 9.59953L59.0769 8.47953L67.7569 35.9995H63.9169ZM55.5569 11.7995L51.5169 25.2395H60.1969L55.5569 11.7995Z" fill="#2F2F2F"/>
<path d="M74.0016 7.51953L73.0016 13.4395H72.6016L71.6016 7.51953H74.0016Z" fill="#2F2F2F"/>
<path d="M79.0266 29.0795C82.0666 32.7195 84.1066 34.9195 86.5066 35.3995C86.9466 35.4795 87.3466 35.5195 87.7466 35.5195C90.3466 35.5195 92.3866 33.8795 92.6266 31.3195C93.1466 25.3595 79.4666 22.6795 77.9066 16.3195C76.7866 11.6395 81.6266 8.63953 86.1866 8.63953C91.3066 8.63953 94.6266 11.5195 95.7866 12.7595L92.9866 15.7995C91.5866 12.7195 89.5466 9.59953 85.7866 9.59953C82.7866 9.59953 80.7866 11.7195 81.1866 13.8395C82.2266 19.4795 94.9066 21.8395 96.1066 27.5195C97.1866 32.6395 93.0266 36.5595 86.6666 36.5595C81.0266 36.5595 76.2266 32.3995 76.2266 32.3995L79.0266 29.0795Z" fill="#2F2F2F"/>
<path d="M109.533 9.59953L113.293 8.47953V29.4795C113.293 33.8795 111.053 36.5195 106.173 36.5195V35.5595C109.053 35.5595 109.533 33.5195 109.533 29.7195V9.59953Z" fill="#2F2F2F"/>
<path d="M132.543 10.2795L121.143 10.0395V21.9595H129.423L128.783 22.8795H121.143V35.1195L132.543 34.8395V35.9995H117.383V9.11953H132.543V10.2795Z" fill="#2F2F2F"/>
<path d="M160.423 34.3995L167.863 9.11953H169.383L160.943 35.9995H157.063L152.343 20.9595L147.623 35.9995H143.703L135.303 9.11953H139.663L147.103 34.3995L151.663 18.8395L148.623 9.11953H153.023L160.423 34.3995Z" fill="#2F2F2F"/>
<path d="M187.66 10.2795L176.26 10.0395V21.9595H184.54L183.9 22.8795H176.26V35.1195L187.66 34.8395V35.9995H172.5V9.11953H187.66V10.2795Z" fill="#2F2F2F"/>
<path d="M194.58 35.0795H206.46V35.9995H190.82V9.59953L194.58 8.47953V35.0795Z" fill="#2F2F2F"/>
<path d="M210.706 29.0795C213.746 32.7195 215.786 34.9195 218.186 35.3995C218.626 35.4795 219.026 35.5195 219.426 35.5195C222.026 35.5195 224.066 33.8795 224.306 31.3195C224.826 25.3595 211.146 22.6795 209.586 16.3195C208.466 11.6395 213.306 8.63953 217.866 8.63953C222.986 8.63953 226.306 11.5195 227.466 12.7595L224.666 15.7995C223.266 12.7195 221.226 9.59953 217.466 9.59953C214.466 9.59953 212.466 11.7195 212.866 13.8395C213.906 19.4795 226.586 21.8395 227.786 27.5195C228.866 32.6395 224.706 36.5595 218.346 36.5595C212.706 36.5595 207.906 32.3995 207.906 32.3995L210.706 29.0795Z" fill="#2F2F2F"/>
<path d="M164.308 0L160 6L168 0H164.308Z" fill="#2F2F2F"/>
</svg>
