<svg width="236" height="30" viewBox="0 0 236 30" fill="none" xmlns="http://www.w3.org/2000/svg">
<path d="M18.9241 29H13.9241L3.92406 16.32V29H0.164062V2.60002L3.92406 1.48002V13.52L14.2841 2.12002H16.4441L6.00406 12.68L18.9241 29Z" fill="white"/>
<path d="M25.4866 1.48002V29H21.7266V2.60002L25.4866 1.48002Z" fill="white"/>
<path d="M49.0963 2.12002L41.1362 18.44V29H37.6562L37.4163 18.44L29.4562 2.12002H33.7762L40.8963 16.92L47.6963 2.12002H49.0963Z" fill="white"/>
<path d="M64.0809 29L60.6809 19.12H51.4009L48.4409 29H46.9609L55.5209 2.60002L59.2409 1.48002L67.9209 29H64.0809ZM55.7209 4.80002L51.6809 18.24H60.3609L55.7209 4.80002Z" fill="white"/>
<path d="M74.1656 0.52002L73.1656 6.44002H72.7656L71.7656 0.52002H74.1656Z" fill="white"/>
<path d="M79.1906 22.08C82.2306 25.72 84.2706 27.92 86.6706 28.4C87.1106 28.48 87.5106 28.52 87.9106 28.52C90.5106 28.52 92.5506 26.88 92.7906 24.32C93.3106 18.36 79.6306 15.68 78.0706 9.32002C76.9506 4.64002 81.7906 1.64002 86.3506 1.64002C91.4706 1.64002 94.7906 4.52002 95.9506 5.76002L93.1506 8.80002C91.7506 5.72002 89.7106 2.60002 85.9506 2.60002C82.9506 2.60002 80.9506 4.72002 81.3506 6.84002C82.3906 12.48 95.0706 14.84 96.2706 20.52C97.3506 25.64 93.1906 29.56 86.8306 29.56C81.1906 29.56 76.3906 25.4 76.3906 25.4L79.1906 22.08Z" fill="white"/>
<path d="M109.697 2.60002L113.457 1.48002V22.48C113.457 26.88 111.217 29.52 106.337 29.52V28.56C109.217 28.56 109.697 26.52 109.697 22.72V2.60002Z" fill="white"/>
<path d="M132.707 3.28002L121.307 3.04002V14.96H129.587L128.947 15.88H121.307V28.12L132.707 27.84V29H117.547V2.12002H132.707V3.28002Z" fill="white"/>
<path d="M160.587 27.4L168.027 2.12002H169.547L161.107 29H157.227L152.507 13.96L147.787 29H143.867L135.467 2.12002H139.827L147.267 27.4L151.827 11.84L148.787 2.12002H153.187L160.587 27.4Z" fill="white"/>
<path d="M187.824 3.28002L176.424 3.04002V14.96H184.704L184.064 15.88H176.424V28.12L187.824 27.84V29H172.664V2.12002H187.824V3.28002Z" fill="white"/>
<path d="M194.744 28.08H206.624V29H190.984V2.60002L194.744 1.48002V28.08Z" fill="white"/>
<path d="M210.87 22.08C213.91 25.72 215.95 27.92 218.35 28.4C218.79 28.48 219.19 28.52 219.59 28.52C222.19 28.52 224.23 26.88 224.47 24.32C224.99 18.36 211.31 15.68 209.75 9.32002C208.63 4.64002 213.47 1.64002 218.03 1.64002C223.15 1.64002 226.47 4.52002 227.63 5.76002L224.83 8.80002C223.43 5.72002 221.39 2.60002 217.63 2.60002C214.63 2.60002 212.63 4.72002 213.03 6.84002C214.07 12.48 226.75 14.84 227.95 20.52C229.03 25.64 224.87 29.56 218.51 29.56C212.87 29.56 208.07 25.4 208.07 25.4L210.87 22.08Z" fill="white"/>
<path d="M233.257 29.4C231.897 29.4 231.297 28.68 231.297 27.8C231.297 26.96 231.937 26.24 233.257 26.24C234.697 26.24 235.217 26.96 235.217 27.8C235.217 28.68 234.697 29.4 233.257 29.4Z" fill="white"/>
</svg>
